<?xml version="1.0" encoding="UTF-8"?>
<!DOCTYPE svg PUBLIC "-//W3C//DTD SVG 1.1//EN" "http://www.w3.org/Graphics/SVG/1.1/DTD/svg11.dtd">
<!-- Creator: CorelDRAW 2021 (64-Bit) -->
<svg xmlns="http://www.w3.org/2000/svg" xml:space="preserve" width="215.544mm" height="195.621mm" version="1.1" style="shape-rendering:geometricPrecision; text-rendering:geometricPrecision; image-rendering:optimizeQuality; fill-rule:evenodd; clip-rule:evenodd"
viewBox="0 0 2039.26 1850.77"
 xmlns:xlink="http://www.w3.org/1999/xlink"
 xmlns:xodm="http://www.corel.com/coreldraw/odm/2003">
 <defs>
  <style type="text/css">
   <![CDATA[
    .fil1 {fill:url(#id0);fill-rule:nonzero}
    .fil0 {fill:url(#id1);fill-rule:nonzero}
    .fil2 {fill:url(#id2);fill-rule:nonzero}
   ]]>
  </style>
  <linearGradient id="id0" gradientUnits="userSpaceOnUse" x1="686.47" y1="1214.33" x2="1738.72" y2="1214.33">
   <stop offset="0" style="stop-opacity:1; stop-color:#D40202"/>
   <stop offset="1" style="stop-opacity:1; stop-color:#3C0102"/>
  </linearGradient>
  <linearGradient id="id1" gradientUnits="userSpaceOnUse" x1="1378.95" y1="1374.97" x2="2034.12" y2="1374.97">
   <stop offset="0" style="stop-opacity:1; stop-color:#3C0102"/>
   <stop offset="1" style="stop-opacity:1; stop-color:#D40202"/>
  </linearGradient>
  <linearGradient id="id2" gradientUnits="userSpaceOnUse" x1="14.26" y1="919.7" x2="1581.32" y2="928.45">
   <stop offset="0" style="stop-opacity:1; stop-color:#D40202"/>
   <stop offset="0.301961" style="stop-opacity:1; stop-color:#880202"/>
   <stop offset="1" style="stop-opacity:1; stop-color:#3C0102"/>
  </linearGradient>
 </defs>
 <g id="Layer_x0020_1">
  <metadata id="CorelCorpID_0Corel-Layer"/>
  <path class="fil0" d="M2015 1641.08c-0.19,0.56 -0.42,1.12 -0.66,1.65 -12.82,31.38 -30.34,60.87 -51.76,87.17l-2.05 2.51c-57.44,66.26 -140.95,104.42 -228.7,104.42 -92.44,0 -179.9,-42.3 -237.28,-114.76 -14.33,-24.93 -29.15,-50.59 -44.46,-76.97l0 0 0 0 -31.7 -54.86 -33.09 -57.18 103.37 -179.08c82.2,-142.48 114.62,-198.54 168.23,-291.19 37.39,-64.66 67.77,-116.87 86.03,-148.9l250.69 434.14c29.82,50.97 45.64,109.15 45.64,168.26 0,42.73 -8.29,85.17 -24.27,124.77l0.01 0.01z"/>
  <path class="fil1" d="M1745.34 918.18l-81.86 141.69 0 0.4 -34.48 59.56 0 0c-48.09,83.47 -93.97,162.89 -137.65,238.25l-35.54 61.41 -68.5 118.26c-23.07,40.1 -45.51,78.95 -67.3,116.54l0 0c-13.24,22.77 -26.12,45.07 -38.65,66.91l-0.4 0.53c-63.58,81.39 -161.17,129.04 -264.5,129.04 -101.2,0 -197.11,-45.72 -260.78,-124.35 -9.1,-12.23 -17.6,-25.13 -25.18,-38.36 -7.37,-12.82 -14.05,-26.18 -19.89,-39.74 -13.75,-34.96 -20.83,-72.37 -20.83,-110 0,-40.79 8.33,-81.25 24.41,-118.69 11.78,-20.3 23.74,-41.04 35.87,-62.22l0 0 266.44 -461.27c15.31,-26.47 30.88,-53.49 46.72,-81.07l72.33 -125.28c59.92,-66.74 145.47,-104.91 235.18,-104.91 109.44,0 211.11,56.61 268.73,149.64l15.95 27.73 89.92 155.92z"/>
  <path class="fil2" d="M1315.97 300.66c0,0.12 0,0.3 0,0.41 0,41.78 -8.79,83.12 -25.74,121.29l-31.44 54.47 0 0.33 -122.9 212.83 -72.21 125.28c-15.8,27.49 -31.37,54.51 -46.72,81.07l-266.44 461.27 0 0 -35.87 62.21 -67.83 117.47c-24.62,42.62 -48.16,83.43 -70.61,122.43 -22.46,39 0,0 0,0 -10.32,17.65 -20.43,35.14 -30.31,52.48 -56.58,78.61 -147.66,125.29 -244.55,125.29 -74.56,0 -146.55,-27.7 -201.88,-77.65 -60.56,-60.77 -96.06,-142.33 -99.27,-228.09 -0.12,-3.71 -0.2,-7.53 -0.2,-11.27 0,-59.15 15.78,-117.32 45.64,-168.34l247.25 -428.31 370.21 -641.21 66.18 -114.09c46.53,-81.98 125.9,-140.44 218,-160.57l0.66 0c23.45,-5.1 47.53,-7.82 71.56,-7.94l5.08 0.01c162.25,4.78 291.39,137.77 291.39,300.12 0,0.15 0,0.37 0,0.51l0 0.02z"/>
 </g>
</svg>
