<svg xmlns="http://www.w3.org/2000/svg" xmlns:xlink="http://www.w3.org/1999/xlink" width="611.02" height="554.52" viewBox="0 0 611.02 554.52"><defs><linearGradient id="a" x1="3532.2" y1="2178.96" x2="4187.37" y2="2178.96" gradientTransform="translate(-645.14 -241.64) scale(0.3)" gradientUnits="userSpaceOnUse"><stop offset="0" stop-color="#3c0102"/><stop offset="1" stop-color="#d40202"/></linearGradient><linearGradient id="b" x1="2839.2" y1="2021.61" x2="3891.45" y2="2021.61" gradientTransform="translate(-645.14 -241.64) scale(0.3)" gradientUnits="userSpaceOnUse"><stop offset="0" stop-color="#d40202"/><stop offset="1" stop-color="#3c0102"/></linearGradient><linearGradient id="c" x1="2167.54" y1="1719.5" x2="3734.6" y2="1728.25" gradientTransform="translate(-645.14 -241.64) scale(0.3)" gradientUnits="userSpaceOnUse"><stop offset="0" stop-color="#d40202"/><stop offset="0.3" stop-color="#880202"/><stop offset="1" stop-color="#3c0102"/></linearGradient></defs><path d="M603.72,491.68a4.34,4.34,0,0,1-.2.5A103.31,103.31,0,0,1,588,518.29l-.62.75A90.68,90.68,0,0,1,447.79,516q-6.45-11.21-13.32-23.06h0L425,476.45l-9.91-17.13,31-53.69c24.62-42.69,34.34-59.48,50.4-87.24,11.2-19.38,20.3-35,25.77-44.62l75.12,130.08a99.75,99.75,0,0,1,6.4,87.79Z" transform="translate(0 0)" fill="url(#a)"/><path d="M522.93,275.09,498.4,317.54v.09l-10.34,17.88h0Q466.44,373,446.82,406.89l-10.65,18.4-20.52,35.43q-10.38,18-20.17,34.92h0q-5.94,10.23-11.58,20.05l-.12.15a100.54,100.54,0,0,1-157.38,1.41,118.76,118.76,0,0,1-13.54-23.4,90.15,90.15,0,0,1,1.07-68.52q5.3-9.12,10.75-18.64h0l79.83-138.2q6.87-11.89,14-24.29l21.72-37.57a94.71,94.71,0,0,1,151,13.4l4.78,8.31L523,275.06Z" transform="translate(0 0)" fill="url(#b)"/><path d="M394.28,90.07v.13a89.55,89.55,0,0,1-7.71,36.34l-9.42,16.32V143l-36.82,63.77-21.64,37.54q-7.1,12.35-14,24.29l-79.82,138.2h0l-10.75,18.64L193.8,460.63q-11.07,19.15-21.16,36.69h0Q168,505.24,163.56,513A90.3,90.3,0,0,1,29.8,527.31,102.25,102.25,0,0,1,.06,458.92c0-1.11-.06-2.25-.06-3.37a100,100,0,0,1,13.67-50.44L87.75,276.78,198.67,84.63,218.5,50.48a99.59,99.59,0,0,1,65.32-48.1h.2A103,103,0,0,1,305.46,0H307a90,90,0,0,1,87.3,89.92v.15Z" transform="translate(0 0)" fill="url(#c)"/></svg>