<?xml version="1.0" encoding="UTF-8"?>
<!DOCTYPE svg PUBLIC "-//W3C//DTD SVG 1.1//EN" "http://www.w3.org/Graphics/SVG/1.1/DTD/svg11.dtd">
<!-- Creator: CorelDRAW 2021 (64-Bit) -->
<svg xmlns="http://www.w3.org/2000/svg" xml:space="preserve" width="326.932mm" height="326.932mm" version="1.1" style="shape-rendering:geometricPrecision; text-rendering:geometricPrecision; image-rendering:optimizeQuality; fill-rule:evenodd; clip-rule:evenodd"
viewBox="0 0 2510.82 2510.82"
 xmlns:xlink="http://www.w3.org/1999/xlink"
 xmlns:xodm="http://www.corel.com/coreldraw/odm/2003">
 <defs>
  <style type="text/css">
   <![CDATA[
    .fil0 {fill:black}
    .fil1 {fill:url(#id0);fill-rule:nonzero}
    .fil2 {fill:url(#id1);fill-rule:nonzero}
    .fil3 {fill:url(#id2);fill-rule:nonzero}
   ]]>
  </style>
  <linearGradient id="id0" gradientUnits="userSpaceOnUse" x1="1546.31" y1="1619.56" x2="2078.82" y2="1619.56">
   <stop offset="0" style="stop-opacity:1; stop-color:#3C0102"/>
   <stop offset="1" style="stop-opacity:1; stop-color:#D40202"/>
  </linearGradient>
  <linearGradient id="id1" gradientUnits="userSpaceOnUse" x1="984.58" y1="1489.68" x2="1838.54" y2="1489.68">
   <stop offset="0" style="stop-opacity:1; stop-color:#D40202"/>
   <stop offset="1" style="stop-opacity:1; stop-color:#3C0102"/>
  </linearGradient>
  <linearGradient id="id2" gradientUnits="userSpaceOnUse" x1="439.09" y1="1250.22" x2="1711.1" y2="1257.52">
   <stop offset="0" style="stop-opacity:1; stop-color:#D40202"/>
   <stop offset="0.301961" style="stop-opacity:1; stop-color:#880202"/>
   <stop offset="1" style="stop-opacity:1; stop-color:#3C0102"/>
  </linearGradient>
 </defs>
 <g id="Layer_x0020_1">
  <metadata id="CorelCorpID_0Corel-Layer"/>
  <circle class="fil0" cx="1255.41" cy="1255.41" r="1255.41"/>
  <g id="_2098329051568">
   <path class="fil1" d="M2063.4 1836.36c-0.15,0.45 -0.34,0.91 -0.54,1.34 -10.41,25.47 -24.63,49.41 -42.02,70.76l-1.66 2.04c-46.63,53.79 -114.42,84.76 -185.65,84.76 -75.04,0 -146.03,-34.34 -192.61,-93.16 -11.63,-20.24 -23.66,-41.07 -36.09,-62.48l0 0 0 0 -25.73 -44.53 -26.86 -46.42 83.91 -145.37c66.73,-115.66 93.04,-161.16 136.56,-236.37 30.35,-52.49 55.01,-94.87 69.83,-120.87l203.5 352.41c24.21,41.37 37.05,88.6 37.05,136.58 0,34.69 -6.73,69.14 -19.7,101.28l0.01 0.01 0 0.01z"/>
   <path class="fil2" d="M1844.5 1249.55l-66.45 115.02 0 0.32 -27.99 48.35 0 0c-39.04,67.76 -76.28,132.23 -111.74,193.4l-28.85 49.85 -55.61 96c-18.73,32.55 -36.94,64.09 -54.63,94.6l0 0c-10.75,18.48 -21.2,36.59 -31.37,54.31l-0.32 0.43c-51.61,66.07 -130.83,104.75 -214.71,104.75 -82.15,0 -160,-37.11 -211.69,-100.94 -7.39,-9.93 -14.29,-20.4 -20.44,-31.14 -5.98,-10.41 -11.4,-21.25 -16.15,-32.26 -11.16,-28.38 -16.91,-58.75 -16.91,-89.29 0,-33.11 6.76,-65.95 19.81,-96.35 9.56,-16.48 19.27,-33.31 29.12,-50.51l0 0 216.28 -374.43c12.43,-21.49 25.07,-43.42 37.93,-65.81l58.71 -101.7c48.64,-54.18 118.09,-85.16 190.91,-85.16 88.84,0 171.37,45.95 218.14,121.47l12.95 22.51 72.99 126.57 0.01 0.01z"/>
   <path class="fil3" d="M1495.96 748.28c0,0.1 0,0.24 0,0.33 0,33.91 -7.14,67.47 -20.89,98.46l-25.52 44.22 0 0.27 -99.76 172.76 -58.62 101.7c-12.83,22.31 -25.46,44.25 -37.93,65.81l-216.28 374.43 0 0 -29.12 50.5 -55.06 95.36c-19.99,34.6 -39.09,67.72 -57.32,99.38 -18.23,31.66 0,0 0,0 -8.38,14.33 -16.58,28.52 -24.6,42.6 -45.93,63.81 -119.86,101.7 -198.51,101.7 -60.52,0 -118.96,-22.49 -163.88,-63.03 -49.16,-49.33 -77.98,-115.54 -80.58,-185.15 -0.1,-3.01 -0.16,-6.11 -0.16,-9.15 0,-48.01 12.81,-95.23 37.05,-136.65l200.7 -347.68 300.52 -520.5 53.72 -92.61c37.77,-66.55 102.2,-114 176.96,-130.34l0.54 0c19.04,-4.14 38.58,-6.35 58.09,-6.44l4.12 0.01c131.71,3.88 236.53,111.83 236.53,243.62 0,0.12 0,0.3 0,0.41l0 0.02 -0 -0.02z"/>
  </g>
 </g>
</svg>
