<?xml version="1.0" encoding="UTF-8"?>
<!DOCTYPE svg PUBLIC "-//W3C//DTD SVG 1.1//EN" "http://www.w3.org/Graphics/SVG/1.1/DTD/svg11.dtd">
<!-- Creator: CorelDRAW 2021 (64-Bit) -->
<svg xmlns="http://www.w3.org/2000/svg" xml:space="preserve" width="893.755mm" height="240.589mm" version="1.1" style="shape-rendering:geometricPrecision; text-rendering:geometricPrecision; image-rendering:optimizeQuality; fill-rule:evenodd; clip-rule:evenodd"
viewBox="0 0 12024.66 3236.91"
 xmlns:xlink="http://www.w3.org/1999/xlink"
 xmlns:xodm="http://www.corel.com/coreldraw/odm/2003">
 <defs>
  <style type="text/css">
   <![CDATA[
    .fil3 {fill:white;fill-rule:nonzero}
    .fil0 {fill:url(#id0);fill-rule:nonzero}
    .fil1 {fill:url(#id1);fill-rule:nonzero}
    .fil2 {fill:url(#id2);fill-rule:nonzero}
   ]]>
  </style>
  <linearGradient id="id0" gradientUnits="userSpaceOnUse" x1="2411.72" y1="2404.76" x2="3557.59" y2="2404.76">
   <stop offset="0" style="stop-opacity:1; stop-color:#3C0102"/>
   <stop offset="1" style="stop-opacity:1; stop-color:#D40202"/>
  </linearGradient>
  <linearGradient id="id1" gradientUnits="userSpaceOnUse" x1="1200.6" y1="2123.81" x2="3040.94" y2="2123.81">
   <stop offset="0" style="stop-opacity:1; stop-color:#D40202"/>
   <stop offset="1" style="stop-opacity:1; stop-color:#3C0102"/>
  </linearGradient>
  <linearGradient id="id2" gradientUnits="userSpaceOnUse" x1="24.93" y1="1608.51" x2="2765.66" y2="1623.81">
   <stop offset="0" style="stop-opacity:1; stop-color:#D40202"/>
   <stop offset="0.301961" style="stop-opacity:1; stop-color:#880202"/>
   <stop offset="1" style="stop-opacity:1; stop-color:#3C0102"/>
  </linearGradient>
 </defs>
 <g id="Layer_x0020_1">
  <metadata id="CorelCorpID_0Corel-Layer"/>
  <g id="_1466263129840">
   <g>
    <path class="fil0" d="M3524.14 2870.17c-0.34,0.97 -0.73,1.95 -1.16,2.89 -22.42,54.88 -53.06,106.46 -90.53,152.46l-3.59 4.4c-100.47,115.88 -246.51,182.63 -399.98,182.63 -161.68,0 -314.63,-73.99 -414.99,-200.71 -25.06,-43.6 -50.98,-88.47 -77.75,-134.62l0 0 0 0 -55.44 -95.95 -57.87 -100 180.79 -313.2c143.76,-249.2 200.47,-347.23 294.22,-509.28 65.4,-113.08 118.52,-204.4 150.47,-260.43l438.44 759.29c52.16,89.14 79.82,190.89 79.82,294.28 0,74.73 -14.51,148.97 -42.45,218.22l0.02 0.01z"/>
    <path class="fil1" d="M3052.51 1605.85l-143.18 247.81 0 0.69 -60.3 104.17 0 0c-84.11,145.99 -164.36,284.88 -240.75,416.68l-62.16 107.41 -119.8 206.84c-40.36,70.14 -79.59,138.08 -117.71,203.83l0 0c-23.15,39.82 -45.68,78.82 -67.59,117.02l-0.7 0.93c-111.2,142.35 -281.88,225.69 -462.6,225.69 -176.99,0 -344.74,-79.97 -456.09,-217.48 -15.91,-21.38 -30.79,-43.95 -44.04,-67.09 -12.89,-22.41 -24.58,-45.79 -34.78,-69.51 -24.04,-61.14 -36.43,-126.57 -36.43,-192.38 0,-71.34 14.58,-142.1 42.7,-207.59 20.61,-35.5 41.52,-71.77 62.74,-108.81l0 0 465.99 -806.74c26.78,-46.3 54.01,-93.56 81.72,-141.79l126.51 -219.11c104.79,-116.73 254.41,-183.48 411.32,-183.48 191.4,0 369.23,99 469.99,261.72l27.89 48.5 157.27 272.7z"/>
    <path class="fil2" d="M2301.56 525.84c0,0.21 0,0.53 0,0.72 0,73.07 -15.36,145.37 -45.01,212.12l-54.98 95.26 0 0.58 -214.94 372.24 -126.29 219.12c-27.63,48.07 -54.86,95.33 -81.71,141.79l-465.99 806.74 0 0 -62.73 108.8 -118.64 205.45c-43.06,74.54 -84.22,145.91 -123.5,214.13 -39.28,68.21 0,0 0,0 -18.06,30.86 -35.73,61.46 -53.01,91.79 -98.95,137.48 -258.25,219.12 -427.71,219.12 -130.41,0 -256.32,-48.45 -353.08,-135.81 -105.91,-106.28 -168.01,-248.92 -173.62,-398.92 -0.21,-6.48 -0.35,-13.17 -0.35,-19.72 0,-103.45 27.61,-205.19 79.83,-294.41l432.42 -749.1 647.48 -1121.45 115.75 -199.54c81.38,-143.37 220.19,-245.63 381.28,-280.83l1.16 0c41.02,-8.91 83.12,-13.67 125.15,-13.89l8.88 0.01c283.76,8.36 509.62,240.95 509.62,524.9 0,0.26 0,0.64 0,0.9l0 0.03z"/>
   </g>
   <g>
    <path class="fil3" d="M4464.74 1164.29l256.64 0 211.76 938.08 212.08 -938.08 255.69 0 -363.16 1348.33 -209.23 0 -363.79 -1348.33zm-158.35 0l265.81 0 50.89 1033.53 0 314.8 -316.7 0 0 -1348.33zm987.07 0l266.76 0 0 1348.33 -317.64 0 0 -314.8 50.89 -1033.53z"/>
    <path id="_1" class="fil3" d="M6541.91 2262.61l0 250.01 -590.09 0 0 -250.01 590.09 0zm-479.78 -1098.32l0 1348.33 -316.7 0 0 -1348.33 316.7 0zm402.66 535.41l0 241.47 -512.97 0 0 -241.47 512.97 0zm79.65 -535.41l0 250.95 -592.62 0 0 -250.95 592.62 0z"/>
    <path id="_2" class="fil3" d="M6672.44 1164.29l461.14 0c90.08,0 168.15,15.49 234.2,46.46 66.06,30.97 116.94,76.49 152.34,136.85 35.4,60.68 53.42,135.28 53.42,224.09 0,77.44 -9.8,141.91 -29.39,193.75 -19.28,51.83 -46.78,94.5 -81.86,128.32 -35.08,33.5 -76.49,61 -124.21,82.81l-102.72 60.05 -361.89 0 -1.9 -250.95 254.75 0c28.76,0 52.78,-7.27 72.06,-22.13 19.28,-14.85 33.5,-36.03 42.98,-63.53 9.8,-27.5 14.54,-60.37 14.54,-98.61 0,-38.88 -4.74,-72.06 -13.91,-99.88 -9.48,-27.81 -22.76,-48.99 -40.46,-63.84 -17.38,-14.86 -40.14,-22.44 -67.95,-22.44l-144.44 0 0 1097.37 -316.7 0 0 -1348.33zm597.36 1348.33l-238.94 -596.41 335.03 -1.9 243.69 584.4 0 13.91 -339.77 0z"/>
    <path id="_3" class="fil3" d="M8374.13 2056.22l316.7 0c0.63,101.14 -18.96,187.43 -58.79,258.86 -39.82,71.11 -95.77,125.16 -167.83,161.51 -72.38,36.35 -157.08,54.68 -253.8,54.68 -78.38,0 -147.92,-13.59 -208.29,-40.77 -60.68,-27.18 -111.57,-66.69 -152.97,-118.52 -41.4,-51.83 -72.38,-114.73 -93.55,-188.69 -20.86,-73.64 -31.29,-157.4 -31.29,-251.27l0 -188.06c0,-93.24 11.06,-176.68 33.82,-250.95 22.44,-73.96 54.68,-136.86 96.08,-188.69 41.72,-51.83 92.29,-91.34 152.03,-118.52 59.42,-27.18 126.11,-40.77 199.44,-40.77 103.04,0 190.27,19.28 261.7,57.84 71.11,38.56 126.11,94.19 164.35,166.57 38.24,72.69 58.47,159.61 61,260.75l-316.7 0c3.16,-58.79 -0.63,-104.93 -11.06,-138.44 -10.43,-33.5 -28.76,-57.52 -55,-71.43 -26.23,-13.91 -61,-20.54 -104.3,-20.54 -29.71,0 -54.68,5.69 -74.91,17.38 -20.54,11.69 -36.66,30.97 -48.99,57.84 -12.33,26.87 -21.49,62.26 -26.87,106.2 -5.69,43.62 -8.53,97.35 -8.53,160.88l0 189.95c0,64.79 2.21,119.16 6.64,163.09 4.11,43.62 12.33,79.02 24.34,105.88 12.01,26.87 28.76,46.14 50.26,57.84 21.18,11.69 48.67,17.7 82.81,17.7 35.72,0 66.37,-6.01 91.66,-18.02 25.29,-12.01 44.25,-34.13 57.21,-65.74 13.28,-31.92 18.02,-77.44 14.85,-136.54z"/>
    <path id="_4" class="fil3" d="M9340.97 1447.79l-250.95 1064.82 -340.72 0 415.94 -1348.33 213.03 0 -37.3 283.51zm196.28 1064.82l-250.64 -1064.82 -41.72 -283.51 216.5 0 416.89 1348.33 -341.03 0zm10.43 -502.86l0 250.96 -584.4 0 0 -250.96 584.4 0z"/>
    <path id="_5" class="fil3" d="M10358.69 2512.61l-247.16 0 1.9 -250.01 245.27 0c46.46,0 84.07,-10.11 113.47,-30.66 29.39,-20.23 51.2,-54.05 65.42,-101.14 14.22,-47.41 21.18,-110.62 21.18,-189.64l0 -206.39c0,-59.1 -3.79,-109.36 -11.69,-150.13 -7.59,-40.46 -19.6,-73.33 -35.4,-97.98 -16.12,-24.65 -37.3,-42.67 -63.85,-54.05 -26.55,-11.69 -58.16,-17.38 -94.5,-17.38l-246.53 0 0 -250.95 246.53 0c79.02,0 150.76,12.96 215.24,38.56 64.48,25.6 120.1,63.21 167.2,112.83 46.78,49.94 82.81,109.99 108.09,180.16 25.6,70.48 38.24,150.76 38.24,240.84l0 204.49c0,89.76 -12.64,169.73 -38.24,240.53 -25.29,70.48 -61,130.53 -107.78,179.84 -46.46,49.62 -101.77,86.92 -165.62,112.52 -63.85,25.6 -134.64,38.56 -211.76,38.56zm-61.95 -1348.33l0 1348.33 -316.7 0 0 -1348.33 316.7 0z"/>
    <path id="_6" class="fil3" d="M12024.66 1737.63l0 203.54c0,97.03 -12.01,182.37 -36.35,255.7 -24.02,73.33 -58.16,134.96 -102.72,184.58 -44.25,49.94 -97.03,87.23 -157.72,112.2 -61,24.97 -128.32,37.61 -202.28,37.61 -74.91,0 -142.86,-12.64 -203.86,-37.61 -61,-24.97 -113.78,-62.26 -158.35,-112.2 -44.57,-49.62 -78.7,-111.25 -102.72,-184.58 -24.02,-73.33 -36.03,-158.66 -36.03,-255.7l0 -203.54c0,-97.03 12.01,-182.37 36.03,-256.64 24.02,-73.96 58.16,-135.59 102.4,-185.21 43.93,-49.31 96.72,-86.6 157.72,-111.89 61,-25.29 128.95,-37.93 203.86,-37.93 73.96,0 141.6,12.64 203.23,37.93 61.32,25.28 114.1,62.58 157.72,111.89 43.93,49.62 78.07,111.25 102.41,185.21 24.34,74.27 36.66,159.61 36.66,256.64zm-321.44 203.54l0 -205.44c0,-60.37 -3.79,-112.2 -11.06,-154.56 -7.59,-42.67 -18.65,-77.12 -33.5,-103.67 -14.54,-26.55 -33.19,-46.14 -55.31,-58.47 -22.44,-12.33 -48.67,-18.65 -78.7,-18.65 -31.61,0 -58.47,6.32 -80.6,18.65 -22.44,12.33 -40.77,31.92 -55.31,58.47 -14.22,26.55 -24.97,61 -31.92,103.67 -6.64,42.35 -10.11,94.19 -10.11,154.56l0 205.44c0,60.05 3.48,110.94 10.11,153.29 6.95,42.35 17.7,77.12 31.92,104.3 14.54,27.18 33.19,47.09 56.26,59.74 22.76,12.64 49.62,18.96 80.6,18.96 29.39,0 55.63,-6.32 78.07,-18.96 22.44,-12.64 41.09,-32.55 55.63,-59.74 14.54,-27.18 25.28,-61.95 32.87,-104.3 7.27,-42.35 11.06,-93.24 11.06,-153.29z"/>
    <path class="fil3" d="M4329.25 3092.62l0 -493.88 158.08 0c64.56,0 116.72,19.99 156.24,60.08 39.52,39.98 59.28,91.33 59.28,154.17l0 65.71c0,63.18 -19.76,114.65 -59.16,154.4 -39.52,39.63 -91.68,59.51 -156.35,59.51l-158.08 0zm78.81 -429.54l0 365.55 79.27 0c42.28,0 75.59,-13.9 100.06,-41.82 24.47,-27.92 36.65,-63.99 36.65,-108.1l0 -66.4c0,-43.54 -12.18,-79.38 -36.65,-107.3 -24.58,-28.03 -57.9,-41.93 -100.06,-41.93l-79.27 0z"/>
    <path id="_1_0" class="fil3" d="M4885.05 3092.62l-78.81 0 0 -370.38 78.81 0 0 370.38zm0 -448.73l-78.81 0 0 -79.5 78.81 0 0 79.5z"/>
    <path id="_2_1" class="fil3" d="M4976.84 2914.09c0,-58.82 12.87,-106.61 38.49,-143.26 25.62,-36.76 61.58,-55.14 108.1,-55.14 23.78,0 44.8,4.82 62.96,14.48 18.15,9.65 30.21,22.52 36.07,38.6l5.97 -46.53 64.68 0 0 365.78c0,47.68 -14.02,84.44 -41.93,110.17 -28.03,25.85 -68.01,38.71 -120.17,38.71 -17.92,0 -37.11,-2.41 -57.56,-7.24 -20.33,-4.94 -39.63,-12.29 -57.56,-22.29l11.72 -60.54c17.46,6.89 34.69,12.29 51.93,16.2 17.12,4.02 34.12,5.97 50.78,5.97 29.75,0 51.12,-6.55 64.22,-19.76 13.21,-13.1 19.76,-33.55 19.76,-61.23l0 -34c-4.02,14.02 -14.7,25.16 -31.94,33.32 -17.35,8.16 -37.11,12.18 -59.62,12.18 -45.95,0 -81.8,-16.43 -107.41,-49.51 -25.62,-32.97 -38.49,-75.94 -38.49,-129.01l0 -6.89zm78.92 6.89c0,34.7 6.78,62.15 20.45,82.37 13.67,20.22 34.69,30.33 63.07,30.33 18.15,0 33.2,-4.14 45.38,-12.41 12.18,-8.16 22.06,-19.42 29.64,-33.78l0 -161.18c-7.35,-13.33 -17.23,-24.13 -29.64,-32.4 -12.41,-8.16 -27.34,-12.29 -44.69,-12.29 -28.38,0 -49.51,12.06 -63.41,36.07 -13.9,24.12 -20.79,56.18 -20.79,96.39l0 6.89z"/>
    <path id="_3_2" class="fil3" d="M5478.07 3092.62l-78.81 0 0 -370.38 78.81 0 0 370.38zm0 -448.73l-78.81 0 0 -79.5 78.81 0 0 79.5z"/>
    <path id="_4_3" class="fil3" d="M5685.77 2636.08l0 86.16 67.66 0 0 61.35 -67.66 0 0 210.35c0,15.05 2.76,25.39 8.27,30.79 5.51,5.51 13.1,8.27 22.75,8.27 3.33,0 7.12,-0.46 11.14,-1.38 4.14,-0.8 10.11,-1.95 18.15,-3.33l10.57 53.76c-7.12,6.2 -15.97,10.68 -26.19,13.44 -10.23,2.64 -20.33,4.02 -30.21,4.02 -28.38,0 -51.12,-8.62 -68.01,-25.85 -16.89,-17.23 -25.39,-43.88 -25.39,-79.73l0 -210.35 -56.75 0 0 -61.35 56.75 0 0 -86.16 78.92 0z"/>
    <path id="_5_4" class="fil3" d="M6048.23 3092.62c-2.99,-14.93 -5.05,-26.42 -6.2,-34.35 -1.26,-7.93 -1.72,-14.36 -1.61,-19.19 -4.71,16.2 -17.23,30.21 -37.68,42.28 -20.33,12.18 -42.39,18.15 -66.29,18.15 -39.17,0 -69.16,-10.11 -89.95,-30.44 -20.79,-20.33 -31.13,-48.13 -31.13,-83.4 0,-36.3 14.59,-64.56 43.77,-84.9 29.18,-20.45 68.12,-30.56 116.95,-30.56l63.76 0 0 -28.84c0,-18.96 -5.74,-34 -17.23,-44.92 -11.49,-11.03 -27.8,-16.54 -49.17,-16.54 -19.41,0 -34.92,4.71 -46.41,14.13 -11.6,9.42 -17.35,22.63 -17.35,39.63l-73.75 0.8 -2.41 -7.24c-1.61,-28.72 11.26,-54.57 38.6,-77.32 27.34,-22.86 62.27,-34.24 105,-34.24 42.16,0 76.28,10.91 102.47,32.63 26.08,21.83 39.06,53.08 39.06,93.74l0 171.98c0,12.98 0.69,25.16 1.95,36.42 1.26,11.37 3.68,25.39 7.35,42.16l-79.73 0zm-102.25 -60.66c22.29,0 42.16,-5.63 59.85,-16.89 17.58,-11.26 28.95,-23.9 34,-37.68l0 -50.2 -66.06 0c-24.35,0 -43.77,5.97 -58.13,18.04 -14.36,12.06 -21.48,25.96 -21.48,41.82 0,14.13 4.25,25.16 12.75,33.09 8.5,7.93 21.48,11.83 39.06,11.83z"/>
    <polygon id="_6_5" class="fil3" points="6304.41,3092.62 6225.6,3092.62 6225.6,2564.39 6304.41,2564.39 "/>
    <path id="_7" class="fil3" d="M6942.93 2925.7l2.41 7.35c0.92,47.68 -15.51,87.42 -49.51,119.02 -33.89,31.71 -78.58,47.45 -133.84,47.45 -56.52,0 -102.59,-19.87 -137.97,-59.74 -35.5,-39.98 -53.19,-90.3 -53.19,-151.18l0 -85.47c0,-60.77 17.69,-111.2 53.19,-151.18 35.5,-40.09 81.45,-60.08 137.97,-60.08 56.06,0 100.87,15.16 134.41,45.38 33.55,30.21 49.86,70.54 48.94,120.86l-2.41 7.35 -74.33 0c0,-36.19 -9.19,-63.41 -27.8,-81.8 -18.5,-18.38 -44.8,-27.57 -78.81,-27.57 -34.01,0 -61.23,13.9 -81.68,41.7 -20.45,27.8 -30.67,62.61 -30.67,104.66l0 86.16c0,42.62 10.22,77.66 30.67,105.46 20.45,27.69 47.68,41.59 81.68,41.59 34.12,0 60.54,-9.08 78.92,-27.23 18.5,-18.15 27.69,-45.72 27.69,-82.72l74.33 0z"/>
    <path id="_8" class="fil3" d="M7211.29 2792.78l-39.63 -1.95c-15.39,0 -28.49,3.68 -39.17,11.03 -10.69,7.47 -18.73,17.46 -24.24,30.21l0 260.55 -78.81 0 0 -370.38 71.11 0 4.36 52.16c3.68,-16.89 13.44,-31.02 29.41,-42.05 15.97,-11.14 34.35,-16.66 55.26,-16.66 5.17,0 10.11,0.34 14.82,1.15 4.6,0.8 10.23,2.3 16.77,4.48l-9.88 71.46z"/>
    <path id="_9" class="fil3" d="M7419.34 3099.51c-53.65,0 -95.35,-17 -125.22,-51.12 -29.87,-34.12 -44.8,-78.81 -44.8,-133.95l0 -14.59c0,-52.85 15.39,-96.73 46.18,-131.77 30.9,-34.92 68.7,-52.39 113.62,-52.39 49.86,0 87.42,15.62 112.47,46.76 25.16,31.25 37.68,72.15 37.68,122.92l0 40.78 -231.49 0 1.95 -3.22c0,33.43 7.47,60.66 22.17,81.45 14.82,20.79 37.22,31.25 67.43,31.25 21.25,0 39.63,-2.99 55.37,-8.96 15.74,-5.86 31.36,-14.7 46.76,-26.42l30.79 49.97c-14.7,15.28 -32.97,27.34 -54.57,36.19 -21.71,8.73 -47.91,13.1 -78.35,13.1zm-10.22 -319.6c-20.56,0 -37.68,8.16 -51.47,24.35 -13.79,16.2 -22.17,36.76 -25.27,61.81l-1.49 -4.14 149.58 0 0 1.26c0,-24.47 -5.86,-44.46 -17.58,-59.97 -11.72,-15.51 -29.64,-23.32 -53.77,-23.32z"/>
    <path id="_10" class="fil3" d="M7859.8 3092.62c-2.99,-14.93 -5.05,-26.42 -6.2,-34.35 -1.26,-7.93 -1.72,-14.36 -1.61,-19.19 -4.71,16.2 -17.23,30.21 -37.68,42.28 -20.33,12.18 -42.39,18.15 -66.29,18.15 -39.17,0 -69.16,-10.11 -89.95,-30.44 -20.79,-20.33 -31.13,-48.13 -31.13,-83.4 0,-36.3 14.59,-64.56 43.77,-84.9 29.18,-20.45 68.12,-30.56 116.95,-30.56l63.76 0 0 -28.84c0,-18.96 -5.74,-34 -17.23,-44.92 -11.49,-11.03 -27.8,-16.54 -49.17,-16.54 -19.41,0 -34.92,4.71 -46.41,14.13 -11.6,9.42 -17.35,22.63 -17.35,39.63l-73.75 0.8 -2.41 -7.24c-1.61,-28.72 11.26,-54.57 38.6,-77.32 27.34,-22.86 62.27,-34.24 105,-34.24 42.16,0 76.28,10.91 102.47,32.63 26.08,21.83 39.06,53.08 39.06,93.74l0 171.98c0,12.98 0.69,25.16 1.95,36.42 1.26,11.37 3.68,25.39 7.35,42.16l-79.73 0zm-102.25 -60.66c22.29,0 42.16,-5.63 59.85,-16.89 17.58,-11.26 28.95,-23.9 34,-37.68l0 -50.2 -66.06 0c-24.35,0 -43.77,5.97 -58.13,18.04 -14.36,12.06 -21.48,25.96 -21.48,41.82 0,14.13 4.25,25.16 12.75,33.09 8.5,7.93 21.48,11.83 39.06,11.83z"/>
    <path id="_11" class="fil3" d="M8136.2 2636.08l0 86.16 67.66 0 0 61.35 -67.66 0 0 210.35c0,15.05 2.76,25.39 8.27,30.79 5.51,5.51 13.1,8.27 22.75,8.27 3.33,0 7.12,-0.46 11.14,-1.38 4.14,-0.8 10.11,-1.95 18.15,-3.33l10.57 53.76c-7.12,6.2 -15.97,10.68 -26.19,13.44 -10.23,2.64 -20.33,4.02 -30.21,4.02 -28.38,0 -51.12,-8.62 -68.01,-25.85 -16.89,-17.23 -25.39,-43.88 -25.39,-79.73l0 -210.35 -56.75 0 0 -61.35 56.75 0 0 -86.16 78.92 0z"/>
    <path id="_12" class="fil3" d="M8362.06 3092.62l-78.81 0 0 -370.38 78.81 0 0 370.38zm0 -448.73l-78.81 0 0 -79.5 78.81 0 0 79.5z"/>
    <polygon id="_13" class="fil3" points="8598.14,2979.23 8602.62,2999.33 8593.55,2999.33 8598.49,2980.38 8682.58,2722.24 8760.93,2722.24 8627.44,3092.62 8568.5,3092.62 8433.4,2722.24 8511.98,2722.24 "/>
    <path id="_14" class="fil3" d="M8962.78 3099.51c-53.65,0 -95.35,-17 -125.22,-51.12 -29.87,-34.12 -44.8,-78.81 -44.8,-133.95l0 -14.59c0,-52.85 15.39,-96.73 46.18,-131.77 30.9,-34.92 68.7,-52.39 113.62,-52.39 49.86,0 87.42,15.62 112.47,46.76 25.16,31.25 37.68,72.15 37.68,122.92l0 40.78 -231.49 0 1.95 -3.22c0,33.43 7.47,60.66 22.17,81.45 14.82,20.79 37.22,31.25 67.43,31.25 21.25,0 39.63,-2.99 55.37,-8.96 15.74,-5.86 31.36,-14.7 46.76,-26.42l30.79 49.97c-14.7,15.28 -32.97,27.34 -54.57,36.19 -21.71,8.73 -47.91,13.1 -78.35,13.1zm-10.22 -319.6c-20.56,0 -37.68,8.16 -51.47,24.35 -13.79,16.2 -22.17,36.76 -25.27,61.81l-1.49 -4.14 149.58 0 0 1.26c0,-24.47 -5.86,-44.46 -17.58,-59.97 -11.72,-15.51 -29.64,-23.32 -53.77,-23.32z"/>
    <path id="_15" class="fil3" d="M9612.89 2968.78l-170.94 0 -42.97 123.84 -78.12 0 175.2 -493.88 65.71 0 171.63 493.88 -78.23 0 -42.28 -123.84zm-150.15 -67.55l129.82 0 -68.24 -193.23 8.04 0 -69.62 193.23z"/>
    <path id="_16" class="fil3" d="M9791.88 2914.09c0,-58.82 12.87,-106.61 38.49,-143.26 25.62,-36.76 61.58,-55.14 108.1,-55.14 23.78,0 44.8,4.82 62.96,14.48 18.15,9.65 30.21,22.52 36.07,38.6l5.97 -46.53 64.68 0 0 365.78c0,47.68 -14.02,84.44 -41.93,110.17 -28.03,25.85 -68.01,38.71 -120.17,38.71 -17.92,0 -37.11,-2.41 -57.56,-7.24 -20.33,-4.94 -39.63,-12.29 -57.56,-22.29l11.72 -60.54c17.46,6.89 34.69,12.29 51.93,16.2 17.12,4.02 34.12,5.97 50.78,5.97 29.75,0 51.12,-6.55 64.22,-19.76 13.21,-13.1 19.76,-33.55 19.76,-61.23l0 -34c-4.02,14.02 -14.7,25.16 -31.94,33.32 -17.35,8.16 -37.11,12.18 -59.62,12.18 -45.95,0 -81.8,-16.43 -107.41,-49.51 -25.62,-32.97 -38.49,-75.94 -38.49,-129.01l0 -6.89zm78.92 6.89c0,34.7 6.78,62.15 20.45,82.37 13.67,20.22 34.69,30.33 63.07,30.33 18.15,0 33.2,-4.14 45.38,-12.41 12.18,-8.16 22.06,-19.42 29.64,-33.78l0 -161.18c-7.35,-13.33 -17.23,-24.13 -29.64,-32.4 -12.41,-8.16 -27.34,-12.29 -44.69,-12.29 -28.38,0 -49.51,12.06 -63.41,36.07 -13.9,24.12 -20.79,56.18 -20.79,96.39l0 6.89z"/>
    <path id="_17" class="fil3" d="M10363.88 3099.51c-53.65,0 -95.35,-17 -125.22,-51.12 -29.87,-34.12 -44.8,-78.81 -44.8,-133.95l0 -14.59c0,-52.85 15.39,-96.73 46.18,-131.77 30.9,-34.92 68.7,-52.39 113.62,-52.39 49.86,0 87.42,15.62 112.47,46.76 25.16,31.25 37.68,72.15 37.68,122.92l0 40.78 -231.49 0 1.95 -3.22c0,33.43 7.47,60.66 22.17,81.45 14.82,20.79 37.22,31.25 67.43,31.25 21.25,0 39.63,-2.99 55.37,-8.96 15.74,-5.86 31.36,-14.7 46.76,-26.42l30.79 49.97c-14.7,15.28 -32.97,27.34 -54.57,36.19 -21.71,8.73 -47.91,13.1 -78.35,13.1zm-10.22 -319.6c-20.56,0 -37.68,8.16 -51.47,24.35 -13.79,16.2 -22.17,36.76 -25.27,61.81l-1.49 -4.14 149.58 0 0 1.26c0,-24.47 -5.86,-44.46 -17.58,-59.97 -11.72,-15.51 -29.64,-23.32 -53.77,-23.32z"/>
    <path id="_18" class="fil3" d="M10654.87 2722.24l3.45 53.19c5.05,-17.69 17.12,-32.05 36.07,-43.2 19.07,-11.03 40.67,-16.54 64.91,-16.54 40.44,0 71.92,11.95 94.32,35.96 22.52,23.9 33.66,60.2 33.66,108.91l0 232.06 -78.81 0 0 -230.8c0,-29.76 -5.51,-50.55 -16.77,-62.38 -11.14,-11.95 -28.49,-17.81 -51.93,-17.81 -18.73,0 -34.58,3.68 -47.45,11.14 -12.98,7.35 -22.86,17.23 -29.87,29.76l0 270.09 -78.81 0 0 -370.38 71.23 0z"/>
    <path id="_19" class="fil3" d="M11138.06 3035.64c18.27,0 34.12,-6.09 47.68,-18.15 13.56,-12.06 20.33,-29.06 20.33,-50.89l69.96 0 3.45 6.89c1.03,33.89 -12.87,63.41 -41.47,88.46 -28.72,25.04 -62.04,37.57 -99.95,37.57 -52.5,0 -92.94,-17.69 -121.43,-53.31 -28.38,-35.61 -42.62,-79.5 -42.62,-131.77l0 -13.9c0,-51.93 14.25,-95.7 42.85,-131.31 28.49,-35.73 68.93,-53.54 121.2,-53.54 41.7,0 75.82,12.98 102.7,38.94 26.77,25.96 39.63,58.25 38.72,96.62l-2.41 7.24 -71 0c0,-24.47 -6.43,-43.65 -19.42,-57.56 -12.98,-14.02 -29.18,-21.02 -48.59,-21.02 -29.18,0 -50.66,11.6 -64.33,34.81 -13.79,23.09 -20.56,51.7 -20.56,85.82l0 13.9c0,34.69 6.66,63.64 20.22,86.62 13.44,23.09 34.92,34.58 64.68,34.58z"/>
    <path id="_20" class="fil3" d="M11486.39 2951.31l10.46 40.67 -8.39 0 87.88 -269.74 84.21 0 -150.27 414.49c-9.65,29.06 -23.32,52.96 -41.13,71.92 -17.81,18.84 -42.05,28.26 -72.72,28.26 -5.97,0 -13.1,-0.57 -21.48,-1.84 -8.27,-1.26 -16.43,-2.99 -24.35,-5.05l6.66 -50.66c-1.38,-8.27 3.56,-12.06 14.71,-11.37 11.03,0.69 18.15,1.03 21.14,1.03 11.37,0 21.14,-5.63 29.18,-16.89 7.93,-11.14 15.16,-24.81 21.48,-40.78l14.13 -32.74 -132.69 -356.36 84.44 0 76.74 229.07z"/>
   </g>
  </g>
 </g>
</svg>
